<svg width="126" height="31" viewBox="0 0 126 31" fill="none" xmlns="http://www.w3.org/2000/svg">
<path d="M66.75 2.5H62.625C60.8016 2.5 59.053 3.15848 57.7636 4.33058C56.4743 5.50269 55.75 7.0924 55.75 8.75V12.5H51.625V17.5H55.75V27.5H61.25V17.5H65.375L66.75 12.5H61.25V8.75C61.25 8.41848 61.3949 8.10054 61.6527 7.86612C61.9106 7.6317 62.2603 7.5 62.625 7.5H66.75V2.5Z" stroke="#F3F3F3" stroke-width="4" stroke-linecap="round" stroke-linejoin="round"/>
<g clip-path="url(#clip0_10_223)">
<path d="M23.3334 8.39575H23.3467M9.33335 2.58325H22.6667C26.3486 2.58325 29.3334 5.47475 29.3334 9.04159V21.9583C29.3334 25.5251 26.3486 28.4166 22.6667 28.4166H9.33335C5.65146 28.4166 2.66669 25.5251 2.66669 21.9583V9.04159C2.66669 5.47475 5.65146 2.58325 9.33335 2.58325ZM21.3334 14.6862C21.4979 15.7612 21.3084 16.859 20.7917 17.8236C20.275 18.7883 19.4575 19.5705 18.4555 20.0591C17.4535 20.5477 16.318 20.7177 15.2104 20.5451C14.1029 20.3724 13.0797 19.8659 12.2865 19.0974C11.4932 18.329 10.9703 17.3378 10.7921 16.2649C10.6139 15.1919 10.7894 14.0919 11.2938 13.1212C11.7981 12.1504 12.6056 11.3585 13.6013 10.858C14.5971 10.3575 15.7304 10.1738 16.84 10.3333C17.9719 10.4959 19.0198 11.0068 19.8289 11.7906C20.6381 12.5745 21.1655 13.5896 21.3334 14.6862Z" stroke="#F3F3F3" stroke-width="4" stroke-linecap="round" stroke-linejoin="round"/>
</g>
<path d="M115.333 10.3333C117.455 10.3333 119.49 11.1498 120.99 12.6032C122.491 14.0566 123.333 16.0278 123.333 18.0833V27.1249H118V18.0833C118 17.3981 117.719 16.741 117.219 16.2566C116.719 15.7721 116.041 15.4999 115.333 15.4999C114.626 15.4999 113.948 15.7721 113.448 16.2566C112.948 16.741 112.667 17.3981 112.667 18.0833V27.1249H107.333V18.0833C107.333 16.0278 108.176 14.0566 109.677 12.6032C111.177 11.1498 113.212 10.3333 115.333 10.3333Z" stroke="#F3F3F3" stroke-width="4" stroke-linecap="round" stroke-linejoin="round"/>
<path d="M102 11.6249H96.6667V27.1249H102V11.6249Z" stroke="#F3F3F3" stroke-width="4" stroke-linecap="round" stroke-linejoin="round"/>
<path d="M99.3334 7.74992C100.806 7.74992 102 6.59332 102 5.16659C102 3.73985 100.806 2.58325 99.3334 2.58325C97.8606 2.58325 96.6667 3.73985 96.6667 5.16659C96.6667 6.59332 97.8606 7.74992 99.3334 7.74992Z" stroke="#F3F3F3" stroke-width="4" stroke-linecap="round" stroke-linejoin="round"/>
<defs>
<clipPath id="clip0_10_223">
<rect width="32" height="31" fill="white"/>
</clipPath>
</defs>
</svg>
